HIERARCHY
ROOT joint_0
{
	OFFSET 0.000000 0.000000 0.000000
	CHANNELS 6 Xposition Yposition Zposition Zrotation Yrotation Xrotation 
	JOINT joint_1
	{
		OFFSET 0.000000 0.000000 0.000000
		CHANNELS 3 Zrotation Yrotation Xrotation
		JOINT joint_2
		{
			OFFSET 3.811170 -8.520760 0.839290
			CHANNELS 3 Zrotation Yrotation Xrotation
			JOINT joint_3
			{
				OFFSET 2.562200 -7.039590 0.000000
				CHANNELS 3 Zrotation Yrotation Xrotation
				JOINT joint_4
				{
					OFFSET 0.157640 -0.433110 2.322550
					CHANNELS 3 Zrotation Yrotation Xrotation
					End Site
					{
						OFFSET 0.000000 0.000000 0.000000
					}
				}
			}
		}
	}
	JOINT joint_5
	{
		OFFSET 0.000000 0.000000 0.000000
		CHANNELS 3 Zrotation Yrotation Xrotation
		JOINT joint_6
		{
			OFFSET -3.848050 -8.780180 0.839290
			CHANNELS 3 Zrotation Yrotation Xrotation
			JOINT joint_7
			{
				OFFSET -2.568260 -7.056230 0.000000
				CHANNELS 3 Zrotation Yrotation Xrotation
				JOINT joint_8
				{
					OFFSET -0.164730 -0.452590 2.363150
					CHANNELS 3 Zrotation Yrotation Xrotation
					End Site
					{
						OFFSET 0.000000 0.000000 0.000000
					}
				}
			}
		}
	}
	JOINT joint_9
	{
		OFFSET 0.028270 2.035590 -0.193380
		CHANNELS 3 Zrotation Yrotation Xrotation
		JOINT joint_10
		{
			OFFSET 0.056720 2.048850 -0.042750
			CHANNELS 3 Zrotation Yrotation Xrotation
			JOINT joint_11
			{
				OFFSET -0.054170 1.746240 0.172020
				CHANNELS 3 Zrotation Yrotation Xrotation
				JOINT joint_12
				{
					OFFSET 0.104070 1.761360 -0.123970
					CHANNELS 3 Zrotation Yrotation Xrotation
					End Site
					{
						OFFSET 0.000000 0.000000 0.000000
					}
				}
			}
			JOINT joint_13
			{
				OFFSET 3.362410 1.200890 -0.311210
				CHANNELS 3 Zrotation Yrotation Xrotation
				JOINT joint_14
				{
					OFFSET 4.983000 -0.000000 -0.000000
					CHANNELS 3 Zrotation Yrotation Xrotation
					JOINT joint_15
					{
						OFFSET 3.483560 -0.000000 -0.000000
						CHANNELS 3 Zrotation Yrotation Xrotation
						JOINT joint_16
						{
							OFFSET 0.715260 -0.000000 -0.000000
							CHANNELS 3 Zrotation Yrotation Xrotation
							End Site
							{
								OFFSET 0.000000 0.000000 0.000000
							}
						}
					}
				}
			}
			JOINT joint_17
			{
				OFFSET -3.136600 1.374050 -0.404650
				CHANNELS 3 Zrotation Yrotation Xrotation
				JOINT joint_18
				{
					OFFSET -5.241900 -0.000000 -0.000000
					CHANNELS 3 Zrotation Yrotation Xrotation
					JOINT joint_19
					{
						OFFSET -3.444170 -0.000000 -0.000000
						CHANNELS 3 Zrotation Yrotation Xrotation
						JOINT joint_20
						{
							OFFSET -0.622530 -0.000000 -0.000000
							CHANNELS 3 Zrotation Yrotation Xrotation
							End Site
							{
								OFFSET 0.000000 0.000000 0.000000
							}
						}
					}
				}
			}
		}
	}
}
MOTION
Frames: 7
Frame Time: 0.031667
4.847296 15.567984 -2.364512 -5.013435 -25.555210 3.808602 -9.249295 12.325616 -22.900038 -4.438811 10.968384 24.977883 -0.798081 9.162589 -6.466883 0.523447 -0.156525 -1.083179 1.195269 1.074366 -1.791654 6.040067 -9.719763 17.922092 -0.172574 -10.995622 -5.228374 -0.361440 -2.193177 6.581164 2.241067 2.769211 1.188971 -3.452090 -0.815617 -7.655776 0.787228 2.949049 5.042817 -1.699925 2.095909 5.752974 -50.432974 -27.971661 17.526274 44.084588 -53.088919 -20.247220 0.987542 0.865197 4.539278 -7.107987 -0.036895 0.040495 86.081024 20.501146 40.669371 -53.882418 56.658005 -24.731213 -0.393910 -1.064045 -6.500312 7.127364 -0.073522 0.063824 
4.817107 15.564921 -2.375835 -4.960369 -25.233309 3.832239 -8.240005 17.077583 -22.490027 -5.766416 11.616124 24.094208 -0.447927 9.372519 -7.249619 0.412429 0.164439 -0.288194 -2.887930 -0.305105 1.892627 7.414572 -8.772116 14.304007 -0.640548 -10.472132 -5.039065 -0.210988 -2.675821 8.038347 2.157419 3.409673 1.105869 -3.815370 -0.947346 -8.017526 -0.520516 4.244003 3.534948 -2.265019 2.546331 5.588020 -47.862536 -29.862720 15.893541 46.684036 -55.502979 -21.168053 1.063424 1.125760 4.132350 -7.132818 -0.007236 0.007434 89.795483 22.623257 41.490510 -57.357221 60.032808 -25.646470 -0.579612 -1.044426 -7.386101 7.143691 -0.021999 0.017089 
4.786918 15.561857 -2.387158 -4.907456 -24.911741 3.856510 -7.708428 21.758474 -23.648505 -6.867284 12.008159 24.148227 0.076352 7.858469 -6.920554 0.317297 -0.815386 -2.846752 -6.009957 -2.041088 3.353617 9.333563 -8.948444 12.603758 -1.160992 -9.072227 -5.104494 -0.208147 -2.645386 8.060087 1.760043 3.422918 0.859412 -4.288508 -0.727419 -8.518189 -1.132352 5.166353 1.653832 -2.319127 2.710756 5.129419 -44.649242 -31.348632 14.756312 49.035761 -57.828527 -21.876760 1.242056 1.220304 2.315905 -7.090714 -0.056381 0.042781 91.795256 22.898447 40.740819 -58.454182 61.280829 -25.216277 -0.458909 -1.497850 -8.169289 7.199757 -0.063467 0.053593 
4.756367 15.558990 -2.397638 -4.866138 -24.549143 3.883723 -8.682125 24.330288 -25.851474 -7.600217 13.006765 24.572095 0.817132 6.370184 -7.243556 0.334936 -1.665313 -4.922698 -7.648313 -3.216396 4.943704 10.589623 -8.854541 11.730327 -1.845931 -7.156486 -6.422476 -0.191165 -2.364306 7.330375 1.838228 3.079517 1.870863 -4.168799 -0.862974 -8.921983 -1.251323 5.160050 -0.416039 -2.135430 2.469137 4.752241 -43.005183 -32.195544 13.845202 51.831062 -59.916025 -22.876373 1.239362 1.522996 1.409612 -7.015204 -0.128234 0.112640 92.643236 23.947269 41.200082 -61.647370 63.399458 -25.560663 -0.379372 -1.698091 -7.432514 7.264903 -0.147172 0.131456 
4.725811 15.556126 -2.408110 -4.825040 -24.186731 3.911492 -9.867008 26.414380 -27.729082 -8.606481 13.784950 25.848909 1.650684 4.781161 -7.665665 0.351825 -2.083674 -5.810545 -8.134991 -4.795108 6.034157 11.830830 -9.775590 12.332218 -2.560177 -5.485866 -7.971711 -0.262335 -2.360244 7.277348 1.646905 2.493595 2.446154 -3.976563 -1.074480 -9.474648 -1.344766 5.184951 -2.303078 -1.936115 2.433036 4.531012 -41.647508 -33.155681 12.696621 53.668422 -61.589240 -22.298089 1.480860 1.665675 0.508557 -6.937862 -0.209528 0.192442 93.175548 24.678320 40.574148 -63.653495 64.982469 -24.746139 -0.258252 -2.317860 -5.916861 7.343204 -0.231314 0.214666 
4.695186 15.553324 -2.417671 -4.793570 -23.777342 3.938570 -11.346201 28.411207 -30.393733 -9.560216 14.825733 26.624767 2.541129 3.037353 -8.840983 0.309846 -1.934806 -5.419364 -9.580064 -5.824648 6.139752 13.209574 -10.469781 13.186184 -3.377376 -3.893027 -9.462212 -0.226237 -2.410252 7.431336 1.641847 1.759133 2.561303 -3.897113 -1.202629 -9.571989 -1.568052 5.918550 -4.176945 -2.220917 2.903346 3.991002 -40.431941 -34.079685 11.953081 57.095673 -63.815662 -23.346885 1.370090 1.856298 0.108428 -6.902845 -0.253311 0.231132 93.361160 25.396927 40.289791 -65.165969 66.021069 -23.770937 -0.307034 -2.426639 -4.072675 7.375215 -0.275143 0.256955 
4.664560 15.550523 -2.427211 -4.762252 -23.367880 3.965985 -11.858889 29.753060 -31.617459 -10.856238 15.541587 27.464292 2.986734 1.885125 -10.760688 0.239160 -1.374813 -3.967372 -10.816910 -7.203638 7.023385 14.621688 -11.849660 14.751675 -4.001769 -2.352849 -10.365044 -0.174559 -1.973991 6.262145 1.563885 1.030932 2.750530 -3.727058 -0.981874 -9.421244 -2.221479 5.983041 -5.572212 -2.665843 3.298232 3.661036 -38.693137 -34.556171 9.927848 58.196580 -65.223261 -22.639837 1.660638 2.070098 0.611965 -6.877729 -0.291548 0.261428 94.172463 26.209856 40.120613 -66.096597 66.921689 -22.386579 -0.201524 -2.985950 -3.439980 7.395722 -0.318584 0.295109 
